<svg width="25" height="25" viewBox="0 0 25 25" fill="none" xmlns="http://www.w3.org/2000/svg">
<g clip-path="url(#clip0)">
<path d="M12.4215 21.245C13.0659 21.245 13.5882 20.7226 13.5882 20.0783C13.5882 19.434 13.0659 18.9116 12.4215 18.9116C11.7772 18.9116 11.2549 19.434 11.2549 20.0783C11.2549 20.7226 11.7772 21.245 12.4215 21.245Z" fill="#99E600"/>
<path d="M6.90397 19.0721C7.5483 19.0721 8.07064 18.5498 8.07064 17.9054C8.07064 17.2611 7.5483 16.7388 6.90397 16.7388C6.25964 16.7388 5.7373 17.2611 5.7373 17.9054C5.7373 18.5498 6.25964 19.0721 6.90397 19.0721Z" fill="#99E600"/>
<path d="M18.0121 19.0511C18.6565 19.0511 19.1788 18.5288 19.1788 17.8844C19.1788 17.2401 18.6565 16.7178 18.0121 16.7178C17.3678 16.7178 16.8455 17.2401 16.8455 17.8844C16.8455 18.5288 17.3678 19.0511 18.0121 19.0511Z" fill="#99E600"/>
<path d="M4.53568 13.6219C5.18002 13.6219 5.70235 13.0996 5.70235 12.4552C5.70235 11.8109 5.18002 11.2886 4.53568 11.2886C3.89135 11.2886 3.36902 11.8109 3.36902 12.4552C3.36902 13.0996 3.89135 13.6219 4.53568 13.6219Z" fill="#99E600"/>
<path d="M20.3804 13.6126C21.0248 13.6126 21.5471 13.0903 21.5471 12.446C21.5471 11.8016 21.0248 11.2793 20.3804 11.2793C19.7361 11.2793 19.2137 11.8016 19.2137 12.446C19.2137 13.0903 19.7361 13.6126 20.3804 13.6126Z" fill="#99E600"/>
<path d="M6.87956 8.18636C7.52389 8.18636 8.04622 7.66403 8.04622 7.01969C8.04622 6.37536 7.52389 5.85303 6.87956 5.85303C6.23523 5.85303 5.71289 6.37536 5.71289 7.01969C5.71289 7.66403 6.23523 8.18636 6.87956 8.18636Z" fill="#99E600"/>
<path d="M18.0368 8.16536C18.6811 8.16536 19.2035 7.64303 19.2035 6.9987C19.2035 6.35437 18.6811 5.83203 18.0368 5.83203C17.3925 5.83203 16.8701 6.35437 16.8701 6.9987C16.8701 7.64303 17.3925 8.16536 18.0368 8.16536Z" fill="#99E600"/>
<path d="M12.4704 5.97103C13.1147 5.97103 13.637 5.44869 13.637 4.80436C13.637 4.16003 13.1147 3.6377 12.4704 3.6377C11.826 3.6377 11.3037 4.16003 11.3037 4.80436C11.3037 5.44869 11.826 5.97103 12.4704 5.97103Z" fill="#99E600"/>
<path d="M14.2585 17.5371C14.6905 17.5371 15.0408 17.1869 15.0408 16.7549C15.0408 16.3229 14.6905 15.9727 14.2585 15.9727C13.8265 15.9727 13.4763 16.3229 13.4763 16.7549C13.4763 17.1869 13.8265 17.5371 14.2585 17.5371Z" fill="#99E600"/>
<path d="M10.5967 17.5249C11.0287 17.5249 11.3789 17.1747 11.3789 16.7427C11.3789 16.3107 11.0287 15.9604 10.5967 15.9604C10.1647 15.9604 9.81445 16.3107 9.81445 16.7427C9.81445 17.1747 10.1647 17.5249 10.5967 17.5249Z" fill="#99E600"/>
<path d="M7.98413 15.041C8.41614 15.041 8.76635 14.6908 8.76635 14.2588C8.76635 13.8268 8.41614 13.4766 7.98413 13.4766C7.55212 13.4766 7.2019 13.8268 7.2019 14.2588C7.2019 14.6908 7.55212 15.041 7.98413 15.041Z" fill="#99E600"/>
<path d="M16.8951 15.0259C17.3271 15.0259 17.6774 14.6757 17.6774 14.2436C17.6774 13.8116 17.3271 13.4614 16.8951 13.4614C16.4631 13.4614 16.1129 13.8116 16.1129 14.2436C16.1129 14.6757 16.4631 15.0259 16.8951 15.0259Z" fill="#99E600"/>
<path d="M8.00866 11.4184C8.44067 11.4184 8.79088 11.0682 8.79088 10.6362C8.79088 10.2042 8.44067 9.854 8.00866 9.854C7.57665 9.854 7.22644 10.2042 7.22644 10.6362C7.22644 11.0682 7.57665 11.4184 8.00866 11.4184Z" fill="#99E600"/>
<path d="M16.8953 11.4033C17.3273 11.4033 17.6775 11.0531 17.6775 10.6211C17.6775 10.1891 17.3273 9.83887 16.8953 9.83887C16.4633 9.83887 16.113 10.1891 16.113 10.6211C16.113 11.0531 16.4633 11.4033 16.8953 11.4033Z" fill="#99E600"/>
<path d="M10.621 8.91943C11.053 8.91943 11.4032 8.56921 11.4032 8.1372C11.4032 7.70519 11.053 7.35498 10.621 7.35498C10.189 7.35498 9.83875 7.70519 9.83875 8.1372C9.83875 8.56921 10.189 8.91943 10.621 8.91943Z" fill="#99E600"/>
<path d="M14.2832 8.90722C14.7152 8.90722 15.0654 8.55701 15.0654 8.125C15.0654 7.69299 14.7152 7.34277 14.2832 7.34277C13.8512 7.34277 13.501 7.69299 13.501 8.125C13.501 8.55701 13.8512 8.90722 14.2832 8.90722Z" fill="#99E600"/>
</g>
<defs>
<clipPath id="clip0">
<rect width="25" height="25" fill="white"/>
</clipPath>
</defs>
</svg>
