<?xml version="1.0" encoding="UTF-8" standalone="no"?><!DOCTYPE svg PUBLIC "-//W3C//DTD SVG 1.1//EN" "http://www.w3.org/Graphics/SVG/1.1/DTD/svg11.dtd"><svg width="100%" height="100%" viewBox="0 0 1061 1071" version="1.1" xmlns="http://www.w3.org/2000/svg" xmlns:xlink="http://www.w3.org/1999/xlink" xml:space="preserve" xmlns:serif="http://www.serif.com/" style="fill-rule:evenodd;clip-rule:evenodd;stroke-linejoin:round;stroke-miterlimit:1.41421;"><rect id="best" x="0" y="0" width="1060.39" height="1070.27" style="fill:none;"/><g><circle cx="530.193" cy="535.133" r="494.713" style="fill:url(#_Linear1);"/><circle cx="530.193" cy="535.133" r="456.658" style="fill:url(#_Linear2);"/><g><path d="M857.868,646.508c0,0 71.091,-18.479 32.446,-75.498c0,0 -30.271,-48.368 -30.271,-22.461c0,0 7.793,21.243 -21.849,8.541c0,0 -15.121,-15.453 -8.405,10.463c0,0 17.877,36.086 -12.252,27.721l-6.178,7.683l4.983,21.615l33.209,22.786l8.317,-0.85Z" style="fill:#f3c539;fill-rule:nonzero;"/><path d="M831.565,595.056c0,0 32.383,46.535 40.793,22.368c0,0 24.91,-17.2 20.859,6.964c0,0 -17.496,32.796 -40.197,13.79l-40.526,-32.829l5.58,-10.293l13.491,0Z" style="fill:#b88b00;fill-rule:nonzero;"/><path d="M893.177,615.594c0,0 2.31,-31.236 -15.149,-36.468c0,0 -22.548,-6.58 -14.546,12.108c0,0 14.546,5.832 12.222,17.787c0,0 -3.593,11.495 17.473,6.573Z" style="fill:#cf9d03;fill-rule:nonzero;"/><path d="M646.429,393.129c0,0 65.703,-7.441 99.453,32.827c0,0 21.447,45.684 7.903,38.501c0,0 -31.589,-28.6 -51.089,-18.679l-28.751,9.908c0,0 -49.815,-53.27 -27.516,-62.557" style="fill:#b88b00;fill-rule:nonzero;"/><path d="M576.562,387.865c0,0 75.238,5.186 97.106,61.346c0,0 24.759,-14.614 35.293,-14.693c10.537,-0.087 52.959,12.097 44.55,30.227c0,0 -49.592,-26.001 -53.794,-6.077c0,0 0.851,38.153 43.71,62.291c0,0 19.627,1.438 -9.834,-24.227c0,0 -16.116,-29.16 20.822,-0.014c0,0 65.368,52.5 63.331,60.362c0,0 6.353,15.653 -22.206,-5.084c0,0 -28.576,-7.773 6.72,19.004c0,0 33.17,19.941 28.974,24.264c0,0 -23.222,0.792 -13.488,14.612c0,0 30.243,34.894 40.331,36.623l-19.676,3.979l-186.601,-120.073l-52.103,-19.87l-27.739,-60.466l4.604,-62.204Z" style="fill:#f3c539;fill-rule:nonzero;"/><path d="M492.003,256.601c0,0 -180.755,103.9 -210.905,188.153c0,0 194.118,-166.894 157.755,-98.549c0,0 -131.474,69.151 -153.9,125.583c0,0 73.576,-58.028 50.334,-24.639c0,0 -82.04,55.63 -77.4,105.706c0,0 58.774,-83.458 47.194,-42.923c0,0 -53.367,83.457 -110.598,104.132c0,0 71.142,-32.839 52.588,-8.476c0,0 -11.313,17.644 -25.681,38.229c-15.922,22.811 -19.679,23.508 -0.857,4.164c12.553,-12.901 20.974,-18.503 14.167,-1.329c0,0 -4.5,9.776 -14.765,25.314c-4.214,6.377 -5.16,29.422 0.254,23.242c2.715,-3.1 5.49,-6.305 8.326,-9.62c0,0 51.046,-54.784 9.279,6.388c0,0 -25.513,23.814 2.314,14.275c0,0 28.722,-25.382 95.568,-14.275c0,0 39.751,-238.21 93.901,-282.977l33.252,-27.024l58.783,-42.133l-29.609,-83.241Z" style="fill:#b88b00;fill-rule:nonzero;"/><path d="M492.333,256.601c0,0 69.17,38.011 112.754,53.556c0,0 36.86,34.557 68.805,39.728c0,0 72.271,34.557 55.464,36.289c0,0 -89.09,-34.94 -84.039,-15.738c0,0 8.189,17.462 55.48,24.37c0,0 36.97,17.929 6.719,10.37c0,0 -85.505,-5.179 -102.429,-25.916l-112.754,-101.922l0,-20.737Z" style="fill:#f3c539;fill-rule:nonzero;"/><path d="M536.321,441.671c0,0 -20.417,224.515 120.792,335.077l16.814,0l-87.412,-205.591l-33.07,-149.152l-17.124,19.666Z" style="fill:#f3c539;fill-rule:nonzero;"/><path d="M543.846,437.906l74.384,89.924l68.932,8.649l36.398,-16.808l39.242,58.261l75.649,72.571c0,0 -11.771,22.462 -38.662,12.092c0,0 -48.745,-70.838 -105.071,-65.654c0,0 -81.521,-13.536 -63.025,68.392c0,0 12.756,38.226 24.544,70.219c6.522,17.66 13.473,29.079 17.478,41.064c0,0 -187.028,-252.336 -129.869,-338.71" style="fill:#b88b00;fill-rule:nonzero;"/><path d="M492.142,277.195l5.699,4.283l44.867,33.727c0,0 65.43,1.722 68.781,10.371c0,0 12.559,59.986 31.054,70.352c0,0 14.724,12.775 -0.415,14.504c0,0 -54.504,-31.44 -55.838,-10.577c0,0 -16.818,82.93 36.971,105.4c0,0 55.485,31.092 62.213,0c0,0 3.359,-27.644 20.175,-3.458c0,0 99.165,96.742 110.937,122.657c0,0 6.73,31.103 -11.772,19.006c0,0 -15.126,-27.645 -18.496,-32.827c0,0 -47.05,-5.188 -67.222,-15.555c0,0 -21.871,-22.451 33.602,-20.73c0,0 -31.171,-14.439 -35.286,-39.729c0,0 -5.039,18.806 -16.807,22.356c0,0 -72.297,17.373 -105.923,-17.184c0,0 -49.174,-45.004 -50.849,-102.015l-51.691,24.279l-115.981,229.782c0,0 -16.81,-3.447 -40.347,0c0,0 -7.125,-177.958 39.317,-231.51c0,0 83.39,-112.307 117.011,-127.845l0,-55.287Z" style="fill:#cf9d03;fill-rule:nonzero;"/><path d="M438.165,743.584c0,0 -30.27,-105.385 -8.414,-131.307c0,0 77.341,70.838 82.386,84.66c0,0 -24.756,-105.39 -45.162,-120.943c0,0 23.296,-77.735 24.972,-93.288c0,0 41.462,22.384 44.815,34.474c0,0 12.34,-96.674 3.947,-134.684c0,0 -10.09,-27.647 -36.989,0c0,0 -72.283,69.107 -67.243,126.126c0,0 -8.405,-51.828 -23.536,-58.743c0,0 -45.373,96.74 -36.975,241.876c0,0 57.155,36.264 62.199,51.829" style="fill:#f3c539;fill-rule:nonzero;"/></g></g><defs><linearGradient id="_Linear1" x1="0" y1="0" x2="1" y2="0" gradientUnits="userSpaceOnUse" gradientTransform="matrix(272.726,938.686,-938.686,272.726,377.974,78.475)"><stop offset="0" style="stop-color:#c09308;stop-opacity:1"/><stop offset="0.41" style="stop-color:#b78a00;stop-opacity:1"/><stop offset="1" style="stop-color:#d2a20f;stop-opacity:1"/></linearGradient><linearGradient id="_Linear2" x1="0" y1="0" x2="1" y2="0" gradientUnits="userSpaceOnUse" gradientTransform="matrix(684.987,627.905,-627.905,684.987,162.33,243.379)"><stop offset="0" style="stop-color:#ce9b00;stop-opacity:1"/><stop offset="0.52" style="stop-color:#f0bf2b;stop-opacity:1"/><stop offset="1" style="stop-color:#b79323;stop-opacity:1"/></linearGradient></defs></svg>