<svg width="27" height="27" viewBox="0 0 27 27" fill="none" xmlns="http://www.w3.org/2000/svg">
<path d="M17.877 0H8.12577C3.63875 0 0 3.63875 0 8.12577V17.877C0 22.3641 3.63875 26.0028 8.12577 26.0028H17.877C22.3641 26.0028 26.0028 22.3641 26.0028 17.877V8.12577C26.0028 3.63875 22.3641 0 17.877 0V0ZM23.5652 17.877C23.5652 21.0135 21.0135 23.5652 17.877 23.5652H8.12577C4.98933 23.5652 2.43764 21.0135 2.43764 17.877V8.12577C2.43764 4.98933 4.98933 2.43764 8.12577 2.43764H17.877C21.0135 2.43764 23.5652 4.98933 23.5652 8.12577V17.877Z" fill="#828282"/>
<path d="M13.0015 6.49976C9.41146 6.49976 6.50098 9.41024 6.50098 13.0003C6.50098 16.5903 9.41146 19.501 13.0015 19.501C16.5915 19.501 19.5023 16.5903 19.5023 13.0003C19.5023 9.41024 16.5915 6.49976 13.0015 6.49976V6.49976ZM13.0015 17.0634C10.762 17.0634 8.93861 15.24 8.93861 13.0003C8.93861 10.7591 10.762 8.93739 13.0015 8.93739C15.2412 8.93739 17.0646 10.7591 17.0646 13.0003C17.0646 15.24 15.2412 17.0634 13.0015 17.0634V17.0634Z" fill="#828282"/>
<path d="M19.9903 6.88451C20.4688 6.88451 20.8567 6.49664 20.8567 6.01818C20.8567 5.53972 20.4688 5.15186 19.9903 5.15186C19.5119 5.15186 19.124 5.53972 19.124 6.01818C19.124 6.49664 19.5119 6.88451 19.9903 6.88451Z" fill="#828282"/>
</svg>
