<svg width="28" height="28" viewBox="0 0 28 28" fill="none" xmlns="http://www.w3.org/2000/svg">
<path d="M18.6509 1.24414H9.15431C4.78446 1.24414 1.24072 4.78788 1.24072 9.15773V18.6544C1.24072 23.0242 4.78446 26.5679 9.15431 26.5679H18.6509C23.0208 26.5679 26.5645 23.0242 26.5645 18.6544V9.15773C26.5645 4.78788 23.0208 1.24414 18.6509 1.24414ZM24.1905 18.6544C24.1905 21.7089 21.7055 24.194 18.6509 24.194H9.15431C6.09976 24.194 3.61471 21.7089 3.61471 18.6544V9.15773C3.61471 6.10318 6.09976 3.61812 9.15431 3.61812H18.6509C21.7055 3.61812 24.1905 6.10318 24.1905 9.15773V18.6544Z" fill="white"/>
<path d="M13.9033 7.57422C10.407 7.57422 7.57248 10.4087 7.57248 13.905C7.57248 17.4013 10.407 20.236 13.9033 20.236C17.3996 20.236 20.2343 17.4013 20.2343 13.905C20.2343 10.4087 17.3996 7.57422 13.9033 7.57422ZM13.9033 17.862C11.7223 17.862 9.94646 16.0862 9.94646 13.905C9.94646 11.7224 11.7223 9.9482 13.9033 9.9482C16.0845 9.9482 17.8603 11.7224 17.8603 13.905C17.8603 16.0862 16.0845 17.862 13.9033 17.862Z" fill="white"/>
<path d="M20.7089 7.94912C21.1749 7.94912 21.5526 7.57139 21.5526 7.10542C21.5526 6.63946 21.1749 6.26172 20.7089 6.26172C20.2429 6.26172 19.8652 6.63946 19.8652 7.10542C19.8652 7.57139 20.2429 7.94912 20.7089 7.94912Z" fill="white"/>
</svg>
