<svg width="25" height="24" viewBox="0 0 25 24" fill="none" xmlns="http://www.w3.org/2000/svg">
<path d="M12.0505 0.013637C5.82288 0.310161 0.908408 5.49657 0.9273 11.7312C0.933053 13.6302 1.39149 15.4225 2.20019 17.0062L0.958543 23.0333C0.891377 23.3593 1.18542 23.6448 1.50929 23.5681L7.41513 22.1689C8.93243 22.9247 10.6367 23.3612 12.4404 23.3887C18.8056 23.486 24.1131 18.4318 24.3115 12.0689C24.5241 5.24837 18.8949 -0.312325 12.0505 0.013637ZM19.0974 18.1702C17.3679 19.8998 15.0682 20.8523 12.6223 20.8523C11.1901 20.8523 9.8189 20.531 8.54669 19.8973L7.72423 19.4876L4.10334 20.3454L4.86552 16.6455L4.46032 15.8521C3.79988 14.5587 3.46501 13.16 3.46501 11.695C3.46501 9.24902 4.41752 6.94947 6.14709 5.21984C7.86121 3.50572 10.1983 2.5377 12.6225 2.5377C15.0684 2.53776 17.3679 3.49026 19.0975 5.21978C20.8271 6.94935 21.7796 9.24891 21.7796 11.6949C21.7796 14.1191 20.8115 16.4562 19.0974 18.1702Z" fill="#E8B727"/>
<path d="M18.2981 14.2313L16.0328 13.5808C15.735 13.4953 15.4142 13.5798 15.1972 13.8009L14.6433 14.3653C14.4097 14.6033 14.0552 14.6798 13.7461 14.5547C12.6745 14.121 10.4202 12.1167 9.84457 11.1142C9.67849 10.825 9.70595 10.4635 9.90987 10.1996L10.3935 9.57389C10.583 9.32875 10.623 8.99951 10.4977 8.71613L9.5446 6.56055C9.31632 6.04425 8.65656 5.89396 8.22553 6.2585C7.59329 6.79323 6.84312 7.60583 6.75193 8.50606C6.59115 10.0932 7.27184 12.094 9.84587 14.4964C12.8196 17.2719 15.2009 17.6386 16.7514 17.263C17.6308 17.05 18.3336 16.1961 18.7771 15.4969C19.0795 15.0202 18.8407 14.3871 18.2981 14.2313Z" fill="#E8B727"/>
</svg>
