<?xml version="1.0" encoding="UTF-8" standalone="no"?><!DOCTYPE svg PUBLIC "-//W3C//DTD SVG 1.1//EN" "http://www.w3.org/Graphics/SVG/1.1/DTD/svg11.dtd"><svg width="100%" height="100%" viewBox="0 0 31 31" version="1.1" xmlns="http://www.w3.org/2000/svg" xmlns:xlink="http://www.w3.org/1999/xlink" xml:space="preserve" xmlns:serif="http://www.serif.com/" style="fill-rule:evenodd;clip-rule:evenodd;stroke-linejoin:round;stroke-miterlimit:2;"><rect id="whatsapp" x="0" y="0" width="30.988" height="30.988" style="fill:none;"/><path d="M15.045,3.508c-6.228,0.296 -11.143,5.483 -11.124,11.717c0.006,1.899 0.465,3.692 1.273,5.275l-1.241,6.027c-0.068,0.326 0.226,0.612 0.55,0.535l5.906,-1.399c1.517,0.756 3.222,1.192 5.025,1.22c6.366,0.097 11.673,-4.957 11.872,-11.32c0.212,-6.821 -5.417,-12.381 -12.261,-12.055Zm7.046,18.156c-1.729,1.73 -4.029,2.682 -6.475,2.682c-1.432,0 -2.803,-0.321 -4.075,-0.955l-0.823,-0.409l-3.621,0.857l0.763,-3.699l-0.406,-0.794c-0.66,-1.293 -0.995,-2.692 -0.995,-4.157c0,-2.446 0.953,-4.745 2.682,-6.475c1.714,-1.714 4.051,-2.682 6.476,-2.682c2.445,0 4.745,0.952 6.475,2.682c1.729,1.729 2.682,4.029 2.682,6.475c0,2.424 -0.968,4.761 -2.683,6.475Z" style="fill:#21119c;fill-rule:nonzero;"/><path d="M21.292,17.725l-2.265,-0.65c-0.298,-0.086 -0.619,-0.001 -0.836,0.22l-0.554,0.564c-0.233,0.238 -0.588,0.315 -0.897,0.19c-1.071,-0.434 -3.326,-2.438 -3.901,-3.441c-0.166,-0.289 -0.139,-0.65 0.065,-0.914l0.484,-0.626c0.189,-0.245 0.229,-0.574 0.104,-0.858l-0.953,-2.155c-0.229,-0.517 -0.888,-0.667 -1.319,-0.302c-0.633,0.534 -1.383,1.347 -1.474,2.247c-0.161,1.587 0.52,3.588 3.094,5.99c2.974,2.776 5.355,3.143 6.905,2.767c0.88,-0.213 1.583,-1.067 2.026,-1.766c0.303,-0.477 0.064,-1.11 -0.479,-1.266Z" style="fill:#21119c;fill-rule:nonzero;"/></svg>