<?xml version="1.0" encoding="UTF-8" standalone="no"?><!DOCTYPE svg PUBLIC "-//W3C//DTD SVG 1.1//EN" "http://www.w3.org/Graphics/SVG/1.1/DTD/svg11.dtd"><svg width="100%" height="100%" viewBox="0 0 367 370" version="1.1" xmlns="http://www.w3.org/2000/svg" xmlns:xlink="http://www.w3.org/1999/xlink" xml:space="preserve" xmlns:serif="http://www.serif.com/" style="fill-rule:evenodd;clip-rule:evenodd;stroke-linejoin:round;stroke-miterlimit:1.41421;"><rect id="best" x="0" y="0" width="366.01" height="369.42" style="fill:none;"/><path d="M183.005,24.803l8.224,8.218l9.065,-7.281l7.288,9.06l9.798,-6.258l6.266,9.794l10.418,-5.162l5.169,10.414l10.915,-4.006l4.014,10.912l11.284,-2.801l2.81,11.281l11.521,-1.565l1.573,11.52l11.623,-0.311l0.319,11.622l11.588,0.948l-0.939,11.589l11.417,2.195l-2.186,11.419l11.113,3.417l-3.409,11.116l10.679,4.598l-4.59,10.682l10.118,5.726l-5.718,10.124l9.44,6.786l-6.779,9.445l8.651,7.768l-7.76,8.657l7.76,8.657l-8.651,7.768l6.779,9.445l-9.44,6.787l5.718,10.123l-10.118,5.726l4.59,10.682l-10.679,4.598l3.409,11.116l-11.113,3.417l2.186,11.419l-11.417,2.195l0.939,11.589l-11.588,0.948l-0.319,11.622l-11.623,-0.311l-1.573,11.52l-11.521,-1.565l-2.81,11.281l-11.284,-2.801l-4.014,10.912l-10.915,-4.006l-5.169,10.414l-10.418,-5.162l-6.266,9.794l-9.798,-6.258l-7.288,9.06l-9.065,-7.281l-8.224,8.218l-8.224,-8.218l-9.065,7.281l-7.288,-9.06l-9.798,6.258l-6.266,-9.794l-10.418,5.162l-5.169,-10.414l-10.915,4.006l-4.014,-10.912l-11.284,2.801l-2.81,-11.281l-11.521,1.565l-1.573,-11.52l-11.623,0.311l-0.319,-11.622l-11.588,-0.948l0.939,-11.589l-11.417,-2.195l2.186,-11.419l-11.113,-3.417l3.409,-11.116l-10.679,-4.598l4.59,-10.682l-10.118,-5.726l5.718,-10.123l-9.44,-6.787l6.779,-9.445l-8.651,-7.768l7.76,-8.657l-7.76,-8.657l8.651,-7.768l-6.779,-9.445l9.44,-6.786l-5.718,-10.124l10.118,-5.726l-4.59,-10.682l10.679,-4.598l-3.409,-11.116l11.113,-3.417l-2.186,-11.419l11.417,-2.195l-0.939,-11.589l11.588,-0.948l0.319,-11.622l11.623,0.311l1.573,-11.52l11.521,1.565l2.81,-11.281l11.284,2.801l4.014,-10.912l10.915,4.006l5.169,-10.414l10.418,5.162l6.266,-9.794l9.798,6.258l7.288,-9.06l9.065,7.281l8.224,-8.218Z" style="fill:#bc8f05;"/><g><circle cx="183.005" cy="184.71" r="143.741" style="fill:url(#_Linear1);"/><g><path d="M286.147,219.767c0,0 22.377,-5.816 10.212,-23.764c0,0 -9.528,-15.225 -9.528,-7.07c0,0 2.453,6.686 -6.877,2.688c0,0 -4.76,-4.864 -2.646,3.294c0,0 5.627,11.358 -3.856,8.725l-1.945,2.419l1.569,6.803l10.453,7.173l2.618,-0.268Z" style="fill:#f3c539;fill-rule:nonzero;"/><path d="M277.867,203.572c0,0 10.193,14.648 12.84,7.041c0,0 7.841,-5.414 6.566,2.192c0,0 -5.507,10.323 -12.653,4.34l-12.756,-10.333l1.757,-3.24l4.246,0Z" style="fill:#b88b00;fill-rule:nonzero;"/><path d="M297.26,210.037c0,0 0.728,-9.833 -4.768,-11.48c0,0 -7.097,-2.07 -4.578,3.812c0,0 4.578,1.836 3.847,5.598c0,0 -1.131,3.619 5.499,2.07Z" style="fill:#cf9d03;fill-rule:nonzero;"/><path d="M219.592,140.012c0,0 20.681,-2.343 31.305,10.333c0,0 6.751,14.379 2.488,12.119c0,0 -9.944,-9.003 -16.082,-5.88l-9.05,3.119c0,0 -15.68,-16.768 -8.661,-19.691" style="fill:#b88b00;fill-rule:nonzero;"/><path d="M197.6,138.355c0,0 23.683,1.632 30.566,19.309c0,0 7.794,-4.599 11.109,-4.624c3.317,-0.028 16.67,3.807 14.023,9.514c0,0 -15.61,-8.184 -16.933,-1.913c0,0 0.269,12.01 13.759,19.607c0,0 6.178,0.453 -3.095,-7.625c0,0 -5.073,-9.179 6.554,-0.005c0,0 20.575,16.526 19.934,19c0,0 2,4.927 -6.99,-1.6c0,0 -8.994,-2.447 2.116,5.982c0,0 10.441,6.277 9.12,7.637c0,0 -7.31,0.25 -4.246,4.6c0,0 9.52,10.983 12.695,11.527l-6.193,1.253l-58.736,-37.795l-16.401,-6.255l-8.731,-19.032l1.449,-19.58Z" style="fill:#f3c539;fill-rule:nonzero;"/><path d="M170.984,97.037c0,0 -56.896,32.704 -66.386,59.225c0,0 61.102,-52.533 49.656,-31.021c0,0 -41.384,21.767 -48.443,39.53c0,0 23.16,-18.265 15.844,-7.756c0,0 -25.824,17.511 -24.363,33.273c0,0 18.5,-26.269 14.855,-13.51c0,0 -16.798,26.269 -34.813,32.777c0,0 22.393,-10.337 16.553,-2.668c0,0 -3.561,5.554 -8.084,12.033c-5.011,7.18 -6.194,7.4 -0.269,1.311c3.951,-4.061 6.602,-5.824 4.459,-0.418c0,0 -1.416,3.077 -4.648,7.968c-1.326,2.007 -1.624,9.261 0.08,7.315c0.855,-0.975 1.729,-1.984 2.621,-3.028c0,0 16.068,-17.244 2.921,2.011c0,0 -8.031,7.496 0.728,4.494c0,0 9.041,-7.99 30.082,-4.494c0,0 12.512,-74.981 29.557,-89.072l10.467,-8.506l18.503,-13.262l-9.32,-26.202Z" style="fill:#b88b00;fill-rule:nonzero;"/><path d="M171.088,97.037c0,0 21.772,11.965 35.491,16.858c0,0 11.602,10.877 21.658,12.505c0,0 22.748,10.877 17.458,11.423c0,0 -28.043,-10.999 -26.453,-4.954c0,0 2.578,5.496 17.463,7.67c0,0 11.638,5.644 2.115,3.265c0,0 -26.914,-1.63 -32.241,-8.158l-35.491,-32.082l0,-6.527Z" style="fill:#f3c539;fill-rule:nonzero;"/><path d="M184.934,155.291c0,0 -6.427,70.67 38.021,105.472l5.293,0l-27.515,-64.714l-10.409,-46.948l-5.39,6.19Z" style="fill:#f3c539;fill-rule:nonzero;"/><path d="M187.303,154.106l23.413,28.305l21.698,2.723l11.456,-5.291l12.353,18.339l23.812,22.843c0,0 -3.705,7.07 -12.17,3.806c0,0 -15.343,-22.298 -33.073,-20.666c0,0 -25.66,-4.261 -19.838,21.528c0,0 4.015,12.032 7.726,22.102c2.053,5.559 4.24,9.154 5.501,12.926c0,0 -58.871,-79.427 -40.878,-106.615" style="fill:#b88b00;fill-rule:nonzero;"/><path d="M171.028,103.519l1.793,1.348l14.123,10.617c0,0 20.595,0.542 21.65,3.264c0,0 3.953,18.882 9.775,22.145c0,0 4.635,4.021 -0.131,4.565c0,0 -17.156,-9.896 -17.576,-3.329c0,0 -5.293,26.104 11.638,33.176c0,0 17.465,9.787 19.582,0c0,0 1.058,-8.701 6.351,-1.088c0,0 31.214,30.451 34.919,38.608c0,0 2.119,9.791 -3.705,5.983c0,0 -4.761,-8.702 -5.822,-10.333c0,0 -14.81,-1.633 -21.159,-4.896c0,0 -6.885,-7.067 10.576,-6.525c0,0 -9.811,-4.545 -11.107,-12.506c0,0 -1.586,5.92 -5.29,7.037c0,0 -22.757,5.469 -33.341,-5.409c0,0 -15.479,-14.166 -16.006,-32.111l-16.27,7.642l-36.507,72.328c0,0 -5.292,-1.085 -12.701,0c0,0 -2.242,-56.015 12.376,-72.872c0,0 26.249,-35.35 36.832,-40.241l0,-17.403Z" style="fill:#cf9d03;fill-rule:nonzero;"/><path d="M154.038,250.324c0,0 -9.529,-33.172 -2.649,-41.332c0,0 24.344,22.298 25.932,26.649c0,0 -7.792,-33.174 -14.215,-38.069c0,0 7.333,-24.469 7.86,-29.364c0,0 13.051,7.045 14.107,10.851c0,0 3.884,-30.43 1.242,-42.394c0,0 -3.176,-8.703 -11.643,0c0,0 -22.752,21.752 -21.166,39.7c0,0 -2.646,-16.314 -7.408,-18.49c0,0 -14.282,30.45 -11.639,76.134c0,0 17.991,11.415 19.579,16.315" style="fill:#f3c539;fill-rule:nonzero;"/></g></g><defs><linearGradient id="_Linear1" x1="0" y1="0" x2="1" y2="0" gradientUnits="userSpaceOnUse" gradientTransform="matrix(215.612,197.644,-197.644,215.612,67.2133,92.8753)"><stop offset="0" style="stop-color:#ce9b00;stop-opacity:1"/><stop offset="0.52" style="stop-color:#f0bf2b;stop-opacity:1"/><stop offset="1" style="stop-color:#b79323;stop-opacity:1"/></linearGradient></defs></svg>