<?xml version="1.0" encoding="UTF-8" standalone="no"?><!DOCTYPE svg PUBLIC "-//W3C//DTD SVG 1.1//EN" "http://www.w3.org/Graphics/SVG/1.1/DTD/svg11.dtd"><svg width="100%" height="100%" viewBox="0 0 362 362" version="1.1" xmlns="http://www.w3.org/2000/svg" xmlns:xlink="http://www.w3.org/1999/xlink" xml:space="preserve" xmlns:serif="http://www.serif.com/" style="fill-rule:evenodd;clip-rule:evenodd;stroke-linejoin:round;stroke-miterlimit:1.41421;"><rect id="icon_grayscale" x="0" y="0" width="361.644" height="361.644" style="fill:none;"/><g opacity="0.7"><g><path d="M98.014,256.978l-7.508,0l-0.802,-2.928l-5.541,0l-1.165,0.922l0,12.401l1.204,0.966l5.502,0l0.802,-2.928l7.508,0l0,5.096c-0.942,0.805 -1.889,1.599 -2.85,2.388c-0.966,0.788 -1.917,1.572 -2.852,2.349l-11.118,0l-6.464,-5.377l0,-17.543l6.221,-5.179l11.604,0l5.459,4.55l0,5.283Z" style="fill:#020304;fill-rule:nonzero;"/><path d="M112.987,258.666l5.697,0l0.963,-0.811l0,-2.995l-0.963,-0.81l-5.697,0l0,4.616Zm-11.366,16.578l0,-6.105l3.055,-0.8l0,-14.25l-3.055,-0.805l0,-6.139l20.876,0l5.42,4.578l0,8.389l-3.974,3.369l3.049,4.858l2.126,0.403l0,6.502l-7.626,0l-6.42,-10.958l-2.085,0l0,4.053l3.05,0.8l0,6.105l-14.416,0Z" style="fill:#020304;fill-rule:nonzero;"/><path d="M141.362,254.05l-1.085,0.844l0,12.518l1.126,0.928l4.856,0l1.125,-0.928l0,-12.518l-1.084,-0.844l-4.938,0Zm11.239,18.685c-1.017,0.844 -2.032,1.682 -3.05,2.509l-11.479,0l-6.065,-5.019l0,-18.181l5.864,-4.899l11.922,0l5.861,4.899l0,18.181c-1.018,0.833 -2.035,1.667 -3.053,2.51" style="fill:#020304;fill-rule:nonzero;"/><path d="M182.224,256.978l-7.508,0l-0.8,-2.928l-5.581,0l-1.042,0.806l0,1.644l0.882,0.688l9.673,1.605l4.697,3.662l0,8.046l-5.74,4.743l-12.079,0l-5.703,-4.737l0,-5.096l7.508,0l0.8,2.928l5.862,0l1.004,-0.844l0,-1.886l-0.764,-0.683l-9.634,-1.605l-4.776,-3.932l0,-7.667l5.458,-4.577l12.286,0l5.457,4.55l0,5.283Z" style="fill:#020304;fill-rule:nonzero;"/><path d="M208.999,256.978l-7.509,0l-0.799,-2.928l-5.583,0l-1.045,0.806l0,1.644l0.887,0.688l9.674,1.605l4.695,3.662l0,8.046l-5.741,4.743l-12.084,0l-5.698,-4.737l0,-5.096l7.509,0l0.801,2.928l5.861,0l1.005,-0.844l0,-1.886l-0.765,-0.683l-9.634,-1.605l-4.777,-3.932l0,-7.667l5.457,-4.577l12.286,0l5.46,4.55l0,5.283Z" style="fill:#020304;fill-rule:nonzero;"/><path d="M231.598,256.978l-0.803,-2.928l-6.745,0l0,4.572l6.745,0l0,4.82l-6.745,0l0,4.897l3.854,0.844l0,6.061l-15.171,0l0,-6.105l3.048,-0.8l0,-14.25l-3.048,-0.805l0,-6.139l24.764,0l0,9.833l-5.899,0Z" style="fill:#020304;fill-rule:nonzero;"/><path d="M252.429,254.088l0,14.251l3.05,0.8l0,6.106l-14.37,0l0,-6.106l3.053,-0.8l0,-14.251l-3.053,-0.804l0,-6.138l14.37,0l0,6.138l-3.05,0.804Z" style="fill:#020304;fill-rule:nonzero;"/><path d="M281.012,258.743l-0.809,-5.096l-3.087,0l0,14.693l3.454,0.844l0,6.06l-15.176,0l0,-6.06l3.414,-0.806l0,-14.731l-3.094,0l-0.802,5.096l-5.94,0l0,-11.598l27.936,0l0,11.598l-5.896,0Z" style="fill:#020304;fill-rule:nonzero;"/><path d="M92.672,276.501l-11.842,0c-0.059,-0.005 -0.113,-0.025 -0.162,-0.059l-7.103,-5.911c-0.054,-0.053 -0.085,-0.119 -0.091,-0.195l0,-18.487c0.006,-0.075 0.036,-0.14 0.091,-0.195l6.863,-5.708c0.049,-0.033 0.103,-0.053 0.163,-0.058l12.327,0c0.058,0.005 0.113,0.024 0.162,0.059l6.098,5.084c0.053,0.053 0.084,0.118 0.091,0.195l0,6.755c-0.021,0.214 -0.066,0.236 -0.254,0.254l-9.272,0c-0.118,-0.013 -0.2,-0.073 -0.245,-0.186l-0.755,-2.741l-4.14,0l-0.345,0.276l0,11.184l0.387,0.314l4.098,0l0.755,-2.742c0.043,-0.11 0.124,-0.173 0.245,-0.186l9.272,0c0,0 0.046,0.003 0.097,0.019c0.093,0.049 0.147,0.127 0.157,0.234l0,6.563c-0.008,0.072 -0.037,0.138 -0.089,0.193c-2.093,1.78 -4.218,3.522 -6.346,5.28c0,0 -0.02,0.046 -0.162,0.058Zm-0.573,-28.104l-10.692,0l-5.419,4.515l0,16.361l5.662,4.714l10.207,0c1.614,-1.333 3.243,-2.651 4.834,-4.006l0.064,-0.055l0,-3.258l-5.291,0l-0.751,2.742c0,0 -0.082,0.168 -0.245,0.186l-6.616,0c-0.057,-0.005 -0.11,-0.023 -0.159,-0.056l-1.856,-1.488c-0.055,-0.053 -0.087,-0.12 -0.095,-0.198l0,-13.363c0.007,-0.077 0.039,-0.144 0.096,-0.199l1.817,-1.444c0.047,-0.032 0.1,-0.051 0.158,-0.055l6.655,0c0,0 0.05,0.004 0.107,0.023c0.062,0.038 0.11,0.092 0.138,0.163l0.753,2.742l5.289,0l0,-3.439l-4.656,-3.885Z" style="fill:#666767;fill-rule:nonzero;"/><path d="M117.038,276.502l-16.417,0c-0.214,-0.021 -0.236,-0.066 -0.254,-0.254l0,-7.881c0.01,-0.111 0.026,-0.186 0.189,-0.246l2.863,-0.75l0,-12.314l-2.863,-0.751c-0.104,-0.038 -0.173,-0.072 -0.189,-0.245l0,-7.92c0.021,-0.213 0.066,-0.235 0.254,-0.253l22.243,0c0.015,0.001 0.029,0.002 0.044,0.003c0.081,0.022 0.097,0.04 0.12,0.056l6.056,5.113c0.053,0.053 0.083,0.118 0.09,0.194l0,9.32c-0.008,0.073 -0.037,0.139 -0.09,0.194l-3.497,2.968l2.178,3.47l2.406,0.454c0.114,0.033 0.189,0.067 0.207,0.249l0,8.339c-0.021,0.214 -0.066,0.235 -0.254,0.254l-9.206,0c-0.09,-0.009 -0.164,-0.051 -0.219,-0.125l-3.407,-5.812l0,5.683c0,0 -0.058,0.234 -0.254,0.254Zm4.997,-28.104l-19.154,0l0,3.918l2.864,0.755c0.172,0.063 0.179,0.136 0.189,0.245l0,15.795c-0.01,0.111 -0.025,0.185 -0.189,0.246l-2.864,0.756l0,3.874l11.896,0l0,-3.875l-2.86,-0.755c-0.172,-0.064 -0.179,-0.136 -0.189,-0.246l0,-5.829c0.021,-0.213 0.066,-0.235 0.254,-0.253l3.663,0c0.09,0.009 0.164,0.05 0.219,0.125l6.351,10.833l5.649,0l0,-4.202l-1.537,-0.293c0,0 -0.083,-0.007 -0.167,-0.114l-3.748,-5.966c-0.054,-0.111 -0.08,-0.193 0.051,-0.329l4.196,-3.553l0,-7.226l-4.624,-3.906Zm-7.685,17.146l-0.108,0l0,1.827l1.395,0.367l-1.287,-2.194Zm4.7,-5.621l-7.068,0c-0.214,-0.021 -0.236,-0.066 -0.254,-0.254l0,-6.623c0.021,-0.213 0.066,-0.235 0.254,-0.254l7.068,0c0.015,0.002 0.03,0.003 0.044,0.004c0.081,0.022 0.097,0.04 0.119,0.056l1.603,1.345c0.053,0.053 0.084,0.118 0.09,0.194l0,3.934c-0.006,0.075 -0.036,0.14 -0.09,0.194l-1.603,1.344c-0.048,0.034 -0.103,0.054 -0.163,0.06Zm-0.821,-4.615l-3.987,0l0,2.101l3.985,0l0.165,-0.139l0,-1.827l-0.163,-0.135Z" style="fill:#666767;fill-rule:nonzero;"/><path d="M149.907,276.502l-12.199,0c-0.059,-0.005 -0.113,-0.024 -0.162,-0.058l-6.7,-5.549c-0.054,-0.053 -0.085,-0.119 -0.092,-0.196l0,-19.125c0.007,-0.075 0.037,-0.14 0.091,-0.194l6.498,-5.433c0.049,-0.034 0.103,-0.054 0.163,-0.059l12.652,0c0.015,0.001 0.029,0.002 0.044,0.004c0.08,0.021 0.096,0.039 0.119,0.055l6.496,5.433c0.053,0.053 0.084,0.118 0.091,0.194l0,19.125c-0.007,0.076 -0.038,0.142 -0.093,0.196l-0.369,0.304c-2.133,1.741 -4.253,3.518 -6.379,5.246c0,0 -0.021,0.045 -0.16,0.057Zm-0.569,-28.104l-11.012,0l-5.058,4.232l0,17.002l5.257,4.355l10.577,0c1.684,-1.382 3.353,-2.767 5.049,-4.157l0.242,-0.199l0,-17.001l-5.055,-4.232Zm-2.718,21.198l-5.578,0c-0.059,-0.005 -0.113,-0.024 -0.162,-0.058l-1.765,-1.455c-0.054,-0.053 -0.085,-0.119 -0.092,-0.196l0,-13.484c0.007,-0.078 0.039,-0.145 0.098,-0.2l1.742,-1.357c0.047,-0.031 0.099,-0.049 0.156,-0.054l5.626,0c0.014,0.002 0.028,0.003 0.042,0.004c0.025,0.006 0.048,0.007 0.114,0.05l1.742,1.357c0.057,0.053 0.091,0.12 0.098,0.2l0,13.484c-0.007,0.076 -0.037,0.141 -0.092,0.196l-1.767,1.455c-0.049,0.033 -0.102,0.053 -0.162,0.058Zm-0.752,-14.288l-4.074,0l-0.256,0.2l0,11.311l0.318,0.263l3.952,0l0.319,-0.263l0,-11.31l-0.259,-0.201Z" style="fill:#666767;fill-rule:nonzero;"/><path d="M177.166,276.502l-12.804,0c-0.059,-0.005 -0.113,-0.025 -0.162,-0.059l-6.34,-5.272c-0.053,-0.053 -0.085,-0.118 -0.091,-0.195l0,-6.568c0.021,-0.213 0.066,-0.235 0.253,-0.254l4.813,0l-4.974,-4.095c0,0 -0.083,-0.089 -0.092,-0.196l0,-8.615c0.006,-0.075 0.036,-0.14 0.09,-0.195l6.097,-5.106c0.048,-0.034 0.103,-0.054 0.163,-0.06l13.009,0c0.015,0.002 0.03,0.003 0.044,0.004c0.027,0.007 0.051,0.008 0.119,0.055l6.102,5.086c0.054,0.053 0.085,0.118 0.092,0.195l0,6.755c-0.021,0.214 -0.066,0.235 -0.254,0.254l-4.055,0l4.531,3.528c0,0 0.088,0.089 0.098,0.2l0,9.006c-0.007,0.076 -0.037,0.142 -0.092,0.196l-6.385,5.278c-0.048,0.033 -0.102,0.053 -0.162,0.058Zm-0.855,-28.104l-11.369,0l-4.659,3.906l0,6.491l4.057,3.344l9.59,1.598c0.029,0.008 0.055,0.008 0.127,0.061l1.313,1.17c0.048,0.052 0.077,0.116 0.085,0.189l0,2.802c-0.006,0.075 -0.036,0.14 -0.09,0.194l-1.644,1.384c-0.048,0.034 -0.103,0.055 -0.163,0.06l-6.993,0c-0.11,-0.01 -0.184,-0.025 -0.245,-0.187l-0.749,-2.742l-5.288,0l0,3.246l4.896,4.072l11.172,0l4.938,-4.079l0,-6.837l-3.96,-3.089l-9.609,-1.599c-0.025,-0.007 -0.047,-0.007 -0.113,-0.049l-1.473,-1.136c-0.058,-0.053 -0.091,-0.12 -0.099,-0.201l0,-2.637c0.007,-0.078 0.04,-0.146 0.099,-0.201l1.704,-1.312c0.047,-0.03 0.099,-0.048 0.155,-0.053l6.69,0c0.118,0.013 0.201,0.074 0.245,0.187l0.75,2.741l5.291,0l0,-3.438l-4.658,-3.885Zm-8.02,18.684l4.443,0l0.206,-0.173l0,-0.738l-0.074,-0.064l-5.075,-0.849c0.167,0.608 0.333,1.216 0.5,1.824Zm4.665,-11.775l-4.193,0l-0.213,0.164l0,0.415l0.144,0.114l4.662,0.773l-0.4,-1.466Z" style="fill:#666767;fill-rule:nonzero;"/><path d="M203.941,276.502l-12.805,0c-0.058,-0.005 -0.113,-0.025 -0.162,-0.059l-6.343,-5.271c-0.054,-0.054 -0.085,-0.119 -0.092,-0.196l0,-6.568c0.021,-0.213 0.067,-0.235 0.254,-0.254l4.812,0l-4.973,-4.095c0,0 -0.083,-0.089 -0.093,-0.196l0,-8.615c0.007,-0.075 0.037,-0.14 0.091,-0.195l6.099,-5.106c0.049,-0.034 0.103,-0.054 0.163,-0.06l13.012,0c0.015,0.002 0.029,0.003 0.044,0.004c0.08,0.022 0.096,0.039 0.119,0.055l6.098,5.086c0.054,0.053 0.085,0.118 0.092,0.195l0,6.755c-0.021,0.214 -0.066,0.235 -0.254,0.254l-4.053,0l4.529,3.528c0,0 0.088,0.089 0.098,0.2l0,9.006c-0.007,0.076 -0.037,0.142 -0.092,0.196l-6.382,5.278c-0.049,0.033 -0.103,0.053 -0.162,0.058Zm-0.858,-28.104l-11.368,0l-4.659,3.906l0,6.491l4.056,3.344l9.591,1.598c0.086,0.023 0.103,0.043 0.127,0.061l1.312,1.17c0.048,0.053 0.078,0.116 0.085,0.189l0,2.802c-0.006,0.075 -0.036,0.14 -0.09,0.194l-1.641,1.384c-0.049,0.034 -0.104,0.055 -0.164,0.06l-6.993,0c-0.117,-0.013 -0.2,-0.074 -0.244,-0.187l-0.753,-2.742l-5.286,0l0,3.246l4.894,4.072l11.178,0l4.935,-4.079l0,-6.837l-3.961,-3.089l-9.61,-1.599c-0.025,-0.007 -0.047,-0.007 -0.113,-0.05l-1.471,-1.135c-0.057,-0.053 -0.091,-0.12 -0.098,-0.201l0,-2.637c0.007,-0.078 0.039,-0.146 0.099,-0.201l1.704,-1.312c0.046,-0.03 0.098,-0.048 0.155,-0.053l6.688,0c0.117,0.013 0.2,0.074 0.244,0.187l0.754,2.741l5.286,0l0,-3.438l-4.657,-3.885Zm-8.02,18.684l4.445,0l0.205,-0.173l0,-0.739l-0.071,-0.063l-5.076,-0.849c0.166,0.608 0.332,1.216 0.497,1.824Zm4.664,-11.775l-4.193,0l-0.212,0.164l0,0.415l0.144,0.114l4.662,0.773l-0.401,-1.466Z" style="fill:#666767;fill-rule:nonzero;"/><path d="M228.908,276.502l-17.18,0c-0.213,-0.021 -0.235,-0.066 -0.254,-0.254l0,-7.881c0.011,-0.111 0.026,-0.186 0.19,-0.246l2.861,-0.749l0,-12.316l-2.861,-0.75c-0.105,-0.038 -0.173,-0.072 -0.19,-0.245l0,-7.92c0.021,-0.213 0.067,-0.235 0.254,-0.254l26.775,0c0.017,0.002 0.033,0.004 0.05,0.005c0.184,0.056 0.193,0.135 0.204,0.249l0,11.841c-0.021,0.214 -0.066,0.236 -0.254,0.254l-6.451,0l0,6.21c0,0 -0.058,0.234 -0.254,0.254l-6.488,0l0,2.629l3.652,0.796c0.11,0.035 0.183,0.068 0.2,0.248l0,7.875c-0.021,0.214 -0.066,0.235 -0.254,0.254Zm7.334,-28.104l-22.256,0l0,3.918l2.864,0.755c0,0 0.174,0.086 0.189,0.245l0,15.795c-0.01,0.111 -0.025,0.185 -0.189,0.245l-2.864,0.756l0,3.875l12.662,0l0,-3.794l-3.655,-0.8c-0.18,-0.058 -0.188,-0.135 -0.199,-0.248l0,-6.708c0.021,-0.213 0.066,-0.235 0.254,-0.254l6.488,0l0,-2.304l-6.488,0c-0.214,-0.021 -0.236,-0.066 -0.254,-0.254l0,-6.578c0.021,-0.213 0.066,-0.235 0.254,-0.254l8.513,0c0,0 0.05,0.005 0.107,0.024c0.062,0.038 0.11,0.092 0.138,0.163l0.75,2.741l3.686,0l0,-7.323Zm-6.409,6.91l-4.523,0l0,2.057l5.089,0l-0.566,-2.057Z" style="fill:#666767;fill-rule:nonzero;"/><path d="M256.484,276.501l-16.375,0c-0.214,-0.021 -0.235,-0.066 -0.254,-0.254l0,-7.88c0.017,-0.182 0.086,-0.208 0.189,-0.245l2.86,-0.751l0,-12.315l-2.859,-0.75c-0.173,-0.062 -0.18,-0.135 -0.19,-0.245l0,-7.919c0.021,-0.214 0.066,-0.236 0.254,-0.254l16.375,0c0.017,0.001 0.033,0.003 0.05,0.005c0.184,0.056 0.193,0.134 0.204,0.249l0,7.919c-0.017,0.182 -0.086,0.208 -0.189,0.245l-2.862,0.75l0,12.315l2.862,0.751c0.172,0.062 0.179,0.135 0.189,0.245l0,7.88c-0.021,0.214 -0.066,0.236 -0.254,0.254Zm-2.26,-28.104l-11.861,0l0,3.919l2.866,0.755c0.172,0.063 0.179,0.136 0.19,0.246l0,15.794c-0.018,0.183 -0.086,0.208 -0.189,0.246l-2.867,0.756l0,3.874l11.861,0l0,-3.874l-2.86,-0.756c-0.105,-0.039 -0.173,-0.072 -0.189,-0.246l0,-15.794c0.01,-0.111 0.025,-0.186 0.189,-0.246l2.86,-0.755l0,-3.919Z" style="fill:#666767;fill-rule:nonzero;"/><path d="M265.769,260.001l-7.803,0c-0.214,-0.021 -0.235,-0.066 -0.254,-0.254l0,-13.605c0.021,-0.214 0.066,-0.236 0.254,-0.254l29.946,0c0.016,0.001 0.033,0.003 0.049,0.005c0.112,0.034 0.187,0.067 0.204,0.249l0,13.605c-0.021,0.214 -0.066,0.236 -0.253,0.254l-7.76,0c-0.12,-0.012 -0.203,-0.033 -0.25,-0.214l-0.771,-4.882l-0.759,0l0,12.446l3.258,0.797c0,0 0.178,0.085 0.194,0.246l0,7.853c-0.021,0.214 -0.067,0.236 -0.254,0.254l-17.178,0c-0.214,-0.021 -0.235,-0.066 -0.254,-0.254l0,-7.859c0.018,-0.185 0.089,-0.211 0.196,-0.247l3.216,-0.758l0,-12.478l-0.759,0l-0.771,4.882c0,0 -0.078,0.196 -0.251,0.214Zm19.885,-11.604l-25.428,0l0,9.089l3.61,0l0.772,-4.882c0,0 0.078,-0.197 0.251,-0.214l4.954,0c0.213,0.021 0.235,0.066 0.254,0.253l0,16.529c-0.011,0.113 -0.028,0.19 -0.196,0.247l-3.219,0.758l0,3.81l12.661,0l0,-3.82l-3.264,-0.792c-0.107,-0.037 -0.177,-0.071 -0.194,-0.247l0,-16.485c0.021,-0.213 0.066,-0.235 0.254,-0.253l4.956,0c0.12,0.012 0.203,0.033 0.251,0.214l0.769,4.882l3.569,0l0,-9.089Z" style="fill:#666767;fill-rule:nonzero;"/><path d="M268.82,171.872c0,0 19.055,-4.819 8.696,-19.689c0,0 -8.113,-12.614 -8.113,-5.858c0,0 2.088,5.54 -5.856,2.228c0,0 -4.053,-4.03 -2.253,2.728c0,0 4.792,9.411 -3.284,7.23l-1.656,2.004l1.336,5.636l8.9,5.943l2.23,-0.222Z" style="fill:#666767;fill-rule:nonzero;"/><path d="M261.625,158.51c0,0 8.68,12.136 10.933,5.833c0,0 6.678,-4.485 5.592,1.816c0,0 -4.69,8.553 -10.774,3.597l-10.862,-8.562l1.495,-2.684l3.616,0Z" style="fill:#333;fill-rule:nonzero;"/><path d="M278.266,163.789c0,0 0.62,-8.147 -4.06,-9.511c0,0 -6.043,-1.716 -3.898,3.157c0,0 3.898,1.521 3.276,4.639c0,0 -0.964,2.998 4.682,1.715" style="fill:#010203;fill-rule:nonzero;"/><path d="M212.017,105.87c0,0 17.611,-1.94 26.657,8.561c0,0 5.748,11.915 2.118,10.041c0,0 -8.467,-7.458 -13.693,-4.871l-7.706,2.584c0,0 -13.352,-13.893 -7.376,-16.315" style="fill:#010101;fill-rule:nonzero;"/><path d="M193.365,104.422c0,0 20.167,1.352 26.027,15.998c0,0 6.637,-3.81 9.46,-3.831c2.825,-0.023 14.195,3.155 11.941,7.883c0,0 -13.292,-6.781 -14.419,-1.585c0,0 0.229,9.95 11.717,16.245c0,0 5.259,0.375 -2.636,-6.318c0,0 -4.32,-7.604 5.581,-0.004c0,0 17.52,13.692 16.974,15.743c0,0 1.703,4.081 -5.952,-1.327c0,0 -7.659,-2.026 1.801,4.957c0,0 8.891,5.2 7.767,6.327c0,0 -6.225,0.208 -3.616,3.812c0,0 8.106,9.1 10.81,9.55l-5.273,1.038l-50.015,-31.314l-13.966,-5.182l-7.435,-15.77l1.234,-16.222Z" style="fill:#666767;fill-rule:nonzero;"/><path d="M170.728,70.18c0,0 -48.448,27.097 -56.53,49.07c0,0 52.03,-43.525 42.284,-25.702c0,0 -35.239,18.035 -41.25,32.752c0,0 19.721,-15.133 13.49,-6.426c0,0 -21.988,14.508 -20.745,27.567c0,0 15.753,-21.764 12.649,-11.193c0,0 -14.303,21.765 -29.643,27.156c0,0 19.068,-8.564 14.095,-2.21c0,0 -13.475,20.45 -19.692,25.425c0,0 20.937,-25.91 16.376,-14.716c0,0 -9.12,19.278 -34.411,36.065c0,0 7.049,3.321 32.753,-25.91c0,0 13.683,-14.287 2.488,1.666c0,0 -6.839,6.21 0.62,3.723c0,0 7.698,-6.619 25.615,-3.723c0,0 10.654,-62.124 25.169,-73.799l8.912,-7.048l15.756,-10.988l-7.936,-21.709Z" style="fill:#010101;fill-rule:nonzero;"/><path d="M170.728,70.18c0,0 18.54,9.913 30.222,13.968c0,0 9.879,9.012 18.442,10.36c0,0 19.371,9.012 14.866,9.464c0,0 -23.879,-9.112 -22.526,-4.104c0,0 2.195,4.554 14.871,6.356c0,0 9.909,4.675 1.801,2.704c0,0 -22.919,-1.351 -27.454,-6.759l-30.222,-26.581l0,-5.408Z" style="fill:#666767;fill-rule:nonzero;"/><path d="M182.509,118.412c0,0 -5.472,58.553 32.376,87.387l4.507,0l-23.429,-53.617l-8.864,-38.898l-4.59,5.128Z" style="fill:#666767;fill-rule:nonzero;"/><path d="M184.583,117.466l19.937,23.452l18.476,2.255l9.755,-4.383l10.519,15.194l20.277,18.926c0,0 -3.155,5.858 -10.363,3.154c0,0 -13.066,-18.475 -28.162,-17.122c0,0 -21.851,-3.531 -16.894,17.835c0,0 3.42,9.97 6.579,18.313c1.748,4.606 3.611,7.584 4.685,10.71c0,0 -50.13,-65.808 -34.809,-88.334" style="fill:#010101;fill-rule:nonzero;"/><path d="M170.728,75.588l1.528,1.116l12.026,8.797c0,0 17.537,0.449 18.435,2.704c0,0 3.366,15.644 8.323,18.348c0,0 3.947,3.331 -0.111,3.781c0,0 -14.608,-8.198 -14.966,-2.757c0,0 -4.508,21.628 9.909,27.487c0,0 14.872,8.109 16.675,0c0,0 0.901,-7.209 5.408,-0.902c0,0 26.58,25.23 29.735,31.989c0,0 1.803,8.111 -3.155,4.956c0,0 -4.055,-7.209 -4.958,-8.56c0,0 -12.611,-1.354 -18.018,-4.057c0,0 -5.862,-5.856 9.006,-5.407c0,0 -8.354,-3.765 -9.457,-10.36c0,0 -1.35,4.904 -4.505,5.83c0,0 -19.378,4.53 -28.391,-4.482c0,0 -13.18,-11.736 -13.629,-26.605l-13.855,6.332l-31.087,59.925c0,0 -4.506,-0.898 -10.814,0c0,0 -1.91,-46.409 10.538,-60.375c0,0 22.351,-29.289 31.363,-33.341l0,-14.419Z" style="fill:#333;fill-rule:nonzero;"/><path d="M156.313,197.241c0,0 -8.114,-27.484 -2.255,-34.244c0,0 20.729,18.474 22.082,22.078c0,0 -6.636,-27.485 -12.106,-31.541c0,0 6.245,-20.273 6.694,-24.329c0,0 11.113,5.837 12.012,8.991c0,0 3.308,-25.212 1.058,-35.125c0,0 -2.704,-7.21 -9.915,0c0,0 -19.374,18.023 -18.023,32.893c0,0 -2.253,-13.517 -6.308,-15.32c0,0 -12.161,25.229 -9.911,63.08c0,0 15.32,9.458 16.672,13.517" style="fill:#666767;fill-rule:nonzero;"/><path d="M222.929,280.428c-14.353,8.062 -31.073,19.681 -33.614,23.283c-0.492,2.036 -2.325,3.546 -4.51,3.546c-2.188,0 -4.022,-1.516 -4.511,-3.551c-2.528,-3.604 -19.19,-15.218 -33.504,-23.278l17.999,0c0.68,0.434 1.343,0.861 1.985,1.279c9.315,6.067 14.809,10.314 18.04,13.363c3.238,-3.049 8.748,-7.296 18.099,-13.369c0.641,-0.416 1.303,-0.841 1.982,-1.273l18.034,0Z" style="fill:#010101;"/><path d="M71.701,205.8c-0.044,-2.999 0.183,-5.951 0.689,-8.818c2.644,-14.308 7.982,-60.208 7.982,-74.113c0,-10.022 -10.737,-25.012 -14.874,-29.941c-1.356,-1.616 -1.453,-3.951 -0.225,-5.674l21.998,-30.916c0.872,-1.225 2.281,-1.951 3.784,-1.951l187.646,0c1.5,0 2.912,0.726 3.781,1.951l21.996,30.917c1.228,1.724 1.137,4.057 -0.226,5.677c-4.136,4.925 -14.87,19.915 -14.87,29.937c0,13.467 5.18,58.914 7.835,74.118c0.524,2.863 0.766,5.813 0.736,8.813l-9.276,0c0.027,-2.449 -0.168,-4.85 -0.594,-7.175c-2.509,-14.387 -7.981,-60.782 -7.981,-75.756c0,-12.185 10.152,-26.953 14.803,-33.071l-18.597,-26.131l-182.86,0l-18.599,26.131c4.646,6.118 14.805,20.886 14.805,33.071c0,14.608 -5.375,60.838 -8.135,75.762c-0.409,2.322 -0.59,4.722 -0.549,7.169l-9.269,0Z" style="fill:#010101;"/><path d="M37.185,221.066l0.722,0.744l2.959,0c3.929,0 5.895,-1.963 5.895,-5.896l-0.744,-0.744l0,-0.745c-5.887,1.632 -8.832,3.851 -8.832,6.641m-1.488,-11.791l11.812,0.745l0.722,0c2.951,1.996 4.429,4.45 4.429,7.362c0,4.653 -4.18,8.83 -12.54,12.541l-0.723,0l1.469,9.579c0,3.056 -1.228,5.267 -3.681,6.64l-1.488,0l-2.195,-2.217l0,-5.896c0,-2.674 -0.988,-4.637 -2.957,-5.895c0,-15.238 1.716,-22.859 5.152,-22.859" style="fill:#010101;fill-rule:nonzero;"/><path d="M38.004,221.578l2.862,0c3.781,0 5.633,-1.82 5.664,-5.57l-0.742,-0.744l0,-0.535c-5.49,1.572 -8.305,3.667 -8.372,6.243l0.588,0.606Zm2.862,0.47l-3.055,0l-0.857,-0.883l0,-0.1c0,-2.895 3.027,-5.205 9.002,-6.867l0.293,-0.075l0,0.954l0.747,0.744l0,0.094c0,4.069 -2.062,6.133 -6.13,6.133m-5.074,23.862l1.333,0c2.326,-1.324 3.51,-3.48 3.51,-6.408l-1.509,-9.811l0.946,0c8.198,-3.65 12.353,-7.788 12.353,-12.309c0,-2.796 -1.43,-5.196 -4.265,-7.131l-0.651,0l-11.829,-0.746c-3.24,0 -4.897,7.573 -4.903,22.503c1.958,1.3 2.956,3.324 2.956,6.022l0,5.801l2.059,2.079Zm1.454,0.463l-1.649,0l-2.328,-2.35l0,-5.993c0,-2.582 -0.96,-4.496 -2.851,-5.703l-0.105,-0.065l0,-0.128c0,-15.536 1.76,-23.091 5.383,-23.091l11.824,0.745l0.783,0l0.061,0.038c3.003,2.035 4.528,4.578 4.528,7.556c0,4.731 -4.264,9.017 -12.674,12.75l-0.098,0.021l-0.453,0l1.428,9.311c0.002,3.171 -1.279,5.471 -3.8,6.881l-0.049,0.028Z" style="fill:#010101;fill-rule:nonzero;"/><path d="M59.124,208.983c2.232,0.948 3.452,1.93 3.662,2.934l0,5.878c0,5.708 -0.492,9.624 -1.468,11.753l2.934,0.727c3.869,0 6.805,-6.121 8.819,-18.358l2.211,-1.468c1.467,0 2.686,3.425 3.668,10.286c-0.486,13.219 -1.465,19.82 -2.94,19.82l-0.728,0l-5.151,-5.128l-10.282,4.405l-2.937,0c-1.467,0 -2.198,-3.186 -2.198,-9.557l0,-3.667c0,-11.753 1.47,-17.625 4.41,-17.625" style="fill:#010101;fill-rule:nonzero;"/><path d="M75.378,240.324l0.632,0c0.744,0 2.079,-2.544 2.707,-19.601c-1.163,-8.096 -2.462,-9.954 -3.368,-10.037l-2.064,1.368c-2.051,12.414 -5.007,18.453 -9.033,18.453l-0.056,-0.005l-3.205,-0.795l0.117,-0.259c0.957,-2.085 1.446,-6.005 1.446,-11.653l0,-5.85c-0.204,-0.912 -1.374,-1.827 -3.475,-2.731c-2.74,0.067 -4.13,5.918 -4.13,17.395l0,3.666c0,7.704 1.064,9.327 1.962,9.327l2.887,0l10.388,-4.451l5.192,5.173Zm0.632,0.463l-0.822,0l-5.11,-5.09l-10.23,4.367l-2.937,0c-1.657,0 -2.428,-3.11 -2.428,-9.789l0,-3.666c0,-12.018 1.519,-17.864 4.641,-17.864l0.094,0.022c2.326,0.994 3.568,2.007 3.796,3.105l0.006,0.044l0,5.879c0,5.493 -0.466,9.386 -1.382,11.592l2.647,0.65c3.7,-0.026 6.579,-6.136 8.556,-18.16l0.018,-0.093l2.354,-1.566l0.068,0c1.636,0 2.874,3.33 3.897,10.483c-0.651,17.808 -2.035,20.086 -3.168,20.086" style="fill:#010101;fill-rule:nonzero;"/><path d="M89.405,221.496l0.651,1.979l10.517,-4.599l-1.958,-1.979l-3.29,0c-2.665,0 -4.637,1.532 -5.92,4.599m13.149,-11.829c5.691,0 8.539,1.969 8.539,5.912l0,1.979c-1.422,2.299 -5.368,5.146 -11.833,8.543l0,0.646c1.241,1.317 4.308,2.199 9.211,2.646l1.309,2.625c-0.901,2.625 -2.653,3.931 -5.247,3.931l-15.128,-2.619c-2.621,0 -4.593,2.411 -5.911,7.225l-3.293,0c-0.877,0 -1.313,-0.657 -1.313,-1.975l5.251,-20.37c0,-5.252 2.851,-7.877 8.559,-7.877l9.856,-0.666Z" style="fill:#010101;fill-rule:nonzero;"/><path d="M89.654,221.507l0.54,1.654l9.977,-4.367l-1.655,-1.665l-3.19,0c-2.564,0 -4.421,1.434 -5.672,4.378m0.259,2.283l-0.755,-2.3l0.032,-0.083c1.318,-3.149 3.38,-4.743 6.136,-4.743l3.386,0l2.264,2.284l-11.063,4.842Zm-10.793,14.819c0.008,1.539 0.621,1.715 1.081,1.715l3.113,0c1.349,-4.793 3.395,-7.225 6.092,-7.225l15.162,2.625c2.447,0 4.079,-1.207 4.962,-3.694l-1.21,-2.416c-4.929,-0.458 -7.945,-1.34 -9.231,-2.708l-0.06,-0.066l0,-0.877l0.127,-0.066c6.342,-3.331 10.279,-6.161 11.705,-8.406l0,-1.913c0,-3.822 -2.715,-5.68 -8.308,-5.68l-9.838,0.667c-5.62,0 -8.345,2.499 -8.345,7.645l-0.005,0.054l-5.245,20.345Zm4.55,2.178l-3.469,0c-0.705,0 -1.543,-0.382 -1.543,-2.207l0.004,-0.06l5.245,-20.345c0.008,-5.36 2.967,-8.073 8.791,-8.073l9.84,-0.667c5.835,0 8.784,2.068 8.784,6.143l0,2.046l-0.033,0.056c-1.429,2.311 -5.394,5.188 -11.797,8.564l0,0.409c1.236,1.235 4.264,2.078 8.995,2.509l0.129,0.01l1.415,2.829l-0.03,0.089c-0.936,2.719 -2.774,4.097 -5.469,4.097l-15.165,-2.631c-2.455,0.006 -4.368,2.384 -5.65,7.065l-0.047,0.166Z" style="fill:#010101;fill-rule:nonzero;"/><path d="M123.57,222.4l-0.706,0.707l0,3.484l2.097,0l1.394,-1.389l0,-2.095l-2.785,-0.707Zm1.391,-13.263c2.586,0 4.91,3.955 6.977,11.867c2.125,2.797 3.759,4.198 4.896,4.198l0,3.485l2.779,8.383l-1.389,1.395l-3.486,0c-2.652,-4.197 -5.449,-6.293 -8.383,-6.293l-2.101,0c-2.413,0 -5.437,2.796 -9.066,8.383l-2.099,0l-1.39,-1.389l0,-8.383c1.986,-1.815 5.708,-8.796 11.165,-20.941l2.097,-0.705Z" style="fill:#010101;fill-rule:nonzero;"/><path d="M123.099,226.36l1.767,0l1.255,-1.252l0,-1.826l-2.479,-0.628l-0.543,0.546l0,3.16Zm1.961,0.463l-2.428,0l0,-3.816l0.867,-0.866l3.088,0.784l0,2.372l-1.527,1.526Zm-11.871,13.5l1.872,0c3.678,-5.642 6.69,-8.382 9.194,-8.382l2.1,0c2.982,0 5.846,2.118 8.511,6.287l3.259,0l1.224,-1.22l-2.75,-8.321l0,-3.271c-1.199,-0.166 -2.787,-1.565 -4.847,-4.267l-0.041,-0.083c-2.014,-7.721 -4.269,-11.659 -6.712,-11.698l-1.964,0.662c-5.433,12.077 -9.066,18.905 -11.104,20.851l0,8.191l1.258,1.251Zm2.126,0.464l-2.322,0l-1.525,-1.522l0,-8.587l0.075,-0.066c1.952,-1.781 5.691,-8.808 11.112,-20.864l0.041,-0.093l2.264,-0.75c2.725,0 5.078,3.927 7.189,12.001c2.06,2.697 3.634,4.063 4.685,4.063l0.231,0l0,3.68l2.813,8.481l-1.558,1.566l-3.712,0l-0.068,-0.11c-2.592,-4.103 -5.344,-6.181 -8.185,-6.181l-2.1,0c-2.32,0 -5.306,2.784 -8.875,8.283l-0.065,0.099Z" style="fill:#010101;fill-rule:nonzero;"/><path d="M181.124,209.137c4.492,0.303 6.739,1.048 6.739,2.249l0,3.746l-1.507,2.233l-6.739,-0.745l-11.205,1.489l0,0.745c12.456,0.943 18.687,3.437 18.687,7.478l0,2.255c-7.591,7.981 -15.568,11.968 -23.936,11.968c-3.493,-0.688 -5.232,-1.687 -5.232,-2.995l0,-0.745c0,-2.205 6.234,-4.697 18.707,-7.483l2.234,-3l0,-0.738l-11.226,0c-8.973,0 -13.457,-0.999 -13.457,-3.001c0,-4.136 2.244,-6.882 6.74,-8.223c7.389,-3.49 14.123,-5.233 20.195,-5.233" style="fill:#010101;fill-rule:nonzero;"/><path d="M181.108,209.368c-5.996,0 -12.76,1.754 -20.079,5.211c-4.457,1.335 -6.609,3.955 -6.609,8.014c0,1.264 2.295,2.769 13.227,2.769l11.457,0l0,1.053l-2.331,3.127l-0.084,0.016c-15.313,3.42 -18.526,5.829 -18.526,7.257l0,0.746c0,1.174 1.69,2.101 5.021,2.762c8.234,-0.006 16.2,-3.981 23.684,-11.829l0,-2.163c0,-3.881 -6.219,-6.319 -18.476,-7.246l-0.211,-0.015l0,-1.164l11.431,-1.517l6.631,0.728l1.388,-2.057l0,-3.674c0,-0.716 -1.132,-1.659 -6.523,-2.018m-17.946,31.419l-0.044,0c-3.646,-0.723 -5.421,-1.782 -5.421,-3.226l0,-0.746c0,-2.348 6.151,-4.863 18.805,-7.687l2.135,-2.868l0,-0.435l-10.99,0c-9.212,0 -13.689,-1.059 -13.689,-3.232c0,-4.23 2.322,-7.076 6.905,-8.449c7.35,-3.468 14.178,-5.239 20.261,-5.239c4.76,0.321 6.968,1.109 6.968,2.481l0,3.818l-1.625,2.403l-6.849,-0.756l-10.975,1.463l0,0.324c12.575,0.972 18.687,3.492 18.687,7.693l0,2.35l-0.064,0.067c-7.598,7.991 -15.711,12.039 -24.104,12.039" style="fill:#010101;fill-rule:nonzero;"/><path d="M198.874,222.4l-0.709,0.707l0,3.484l2.098,0l1.392,-1.389l0,-2.095l-2.781,-0.707Zm1.389,-13.263c2.587,0 4.909,3.955 6.975,11.867c2.125,2.797 3.759,4.198 4.893,4.198l0,3.485l2.784,8.383l-1.393,1.395l-3.484,0c-2.65,-4.197 -5.449,-6.293 -8.383,-6.293l-2.098,0c-2.414,0 -5.44,2.796 -9.069,8.383l-2.098,0l-1.391,-1.389l0,-8.383c1.986,-1.815 5.706,-8.796 11.166,-20.941l2.098,-0.705Z" style="fill:#010101;fill-rule:nonzero;"/><path d="M198.397,226.36l1.766,0l1.26,-1.252l0,-1.826l-2.479,-0.628l-0.547,0.546l0,3.16Zm1.96,0.463l-2.428,0l0,-3.816l0.874,-0.866l3.082,0.784l0,2.372l-1.528,1.526Zm-11.871,13.5l1.879,0c3.678,-5.642 6.682,-8.382 9.192,-8.382l2.097,0c2.984,0 5.845,2.118 8.51,6.287l3.263,0l1.225,-1.22l-2.752,-8.321l0,-3.271c-1.197,-0.166 -2.79,-1.565 -4.848,-4.267l-0.039,-0.083c-2.019,-7.721 -4.273,-11.659 -6.711,-11.698l-1.965,0.662c-5.435,12.077 -9.069,18.905 -11.106,20.851l0,8.191l1.255,1.251Zm2.127,0.464l-2.317,0l-1.529,-1.522l0,-8.587l0.08,-0.066c1.948,-1.781 5.685,-8.808 11.106,-20.864l0.044,-0.093l2.266,-0.75c2.724,0 5.073,3.927 7.188,12.001c2.057,2.697 3.633,4.063 4.68,4.063l0.231,0l0,3.68l2.82,8.481l-1.56,1.566l-3.713,0l-0.065,-0.11c-2.595,-4.103 -5.349,-6.181 -8.19,-6.181l-2.097,0c-2.321,0 -5.31,2.784 -8.875,8.283l-0.069,0.099Z" style="fill:#010101;fill-rule:nonzero;"/><path d="M220.283,209.314c0.943,0.116 5.57,6.827 13.887,20.134l0.687,0l0.685,-0.701l0,-9.011l-0.685,-2.785c0.613,-2.778 1.303,-4.174 2.074,-4.174l2.097,0c1.438,0.265 2.591,3.275 3.468,9.033c0,8.592 -2.315,14.383 -6.954,17.356l-1.372,0c-4.126,-3.861 -7.375,-8.495 -9.734,-13.887l-1.391,0l-0.683,2.779l0.683,11.108l-2.079,1.389l-0.683,0c-1.724,0 -3.118,-2.543 -4.175,-7.638l1.388,-18.039l0,-2.785l2.787,-2.779Z" style="fill:#010101;fill-rule:nonzero;"/><path d="M216.346,232.9c1.025,4.93 2.347,7.424 3.937,7.424l0.612,0l1.911,-1.275l-0.682,-11.013l0.74,-2.989l1.72,0l0.068,0.138c2.324,5.312 5.557,9.932 9.61,13.749l1.211,0c4.506,-2.929 6.789,-8.686 6.789,-17.124c-1.057,-6.965 -2.368,-8.637 -3.273,-8.802l-2.058,0c-0.361,0 -1.074,0.518 -1.836,3.943l0.679,2.785l0,9.105l-0.82,0.844l-0.911,0l-0.068,-0.111c-10.236,-16.367 -12.953,-19.644 -13.627,-19.997l-2.618,2.615l0,2.686l-1.384,18.022Zm4.692,7.886l-0.755,0c-1.865,0 -3.305,-2.559 -4.403,-7.818l-0.003,-0.035l0,-0.033l1.395,-18.039l0,-2.863l2.928,-2.927l0.112,0.011c0.702,0.089 2.936,2.465 13.989,20.135l0.459,0l0.551,-0.568l0,-8.885l-0.692,-2.807l0.012,-0.056c0.654,-2.972 1.386,-4.35 2.3,-4.35l2.098,0c1.601,0.285 2.796,3.303 3.694,9.225c0.005,8.671 -2.368,14.576 -7.053,17.582l-0.063,0.038l-1.525,0l-0.068,-0.059c-4.097,-3.839 -7.368,-8.487 -9.733,-13.826l-1.053,0l-0.635,2.57l0.692,11.206l-2.247,1.499Z" style="fill:#010101;fill-rule:nonzero;"/><path d="M263.067,209.33l0.959,0l0.958,0.965l0,0.469c0,2.377 -2.403,4.781 -7.206,7.208c-2.652,3.943 -4.738,6.028 -6.254,6.247l0,2.412c-0.961,1.163 -1.445,2.278 -1.445,3.353c0.822,1.929 1.943,2.894 3.371,2.894c3.745,0 7.271,-2.079 10.576,-6.247l-1.94,-0.491l-6.229,2.41c-1.282,-0.485 -1.919,-0.966 -1.919,-1.451l0,-1.428c2.142,-3.525 5.819,-5.29 11.046,-5.29l4.801,0c1.919,0.198 2.878,0.678 2.878,1.451c-2.195,5.625 -8.119,11.708 -17.768,18.239l-3.371,0.484l-5.285,0l-2.882,-2.878l0,-4.324c0,-6.794 4.005,-13.678 12.009,-20.648c2.769,-2.25 5.333,-3.375 7.701,-3.375" style="fill:#010101;fill-rule:nonzero;"/><path d="M246.334,240.324l5.173,0l3.303,-0.475c9.515,-6.447 15.443,-12.518 17.621,-18.061c-0.048,-0.749 -1.473,-1.053 -2.671,-1.175l-4.776,0c-5.086,0 -8.722,1.726 -10.815,5.124l0,1.362c0,0.21 0.223,0.635 1.685,1.201l6.215,-2.403l2.36,0.596l-0.225,0.281c-3.33,4.207 -6.956,6.335 -10.754,6.335c-1.523,0 -2.725,-1.019 -3.585,-3.037l-0.017,-0.089c0,-1.108 0.486,-2.255 1.445,-3.436l0,-2.525l0.199,-0.028c1.439,-0.215 3.49,-2.283 6.089,-6.155l0.037,-0.044l0.053,-0.028c4.697,-2.376 7.082,-4.737 7.082,-7.003l0,-0.375l-0.824,-0.822l-0.862,0c-2.3,0 -4.84,1.113 -7.555,3.315c-7.91,6.893 -11.923,13.777 -11.923,20.47l0,4.23l2.745,2.742Zm5.212,0.463l-5.404,0l-3.016,-3.01l0,-4.425c0,-6.832 4.067,-13.842 12.087,-20.823c2.808,-2.278 5.447,-3.431 7.854,-3.431l1.054,0l1.095,1.097l0,0.569c0,2.487 -2.38,4.902 -7.28,7.39c-2.59,3.837 -4.614,5.89 -6.181,6.259l0,2.3l-0.049,0.065c-0.911,1.099 -1.384,2.157 -1.396,3.155c0.788,1.825 1.816,2.713 3.14,2.713c3.567,0 6.985,-1.978 10.168,-5.878l-1.518,-0.387l-6.243,2.416l-0.081,-0.028c-1.413,-0.534 -2.069,-1.063 -2.069,-1.67l0,-1.495l0.029,-0.055c2.179,-3.585 5.961,-5.398 11.248,-5.398l4.801,0c2.1,0.214 3.108,0.765 3.108,1.68l-0.016,0.085c-2.196,5.646 -8.205,11.817 -17.851,18.341l-0.1,0.039l-3.38,0.491Z" style="fill:#010101;fill-rule:nonzero;"/><path d="M280.518,221.496l0.646,1.979l10.521,-4.599l-1.958,-1.979l-3.295,0c-2.661,0 -4.636,1.532 -5.914,4.599m13.146,-11.829c5.693,0 8.542,1.969 8.542,5.912l0,1.979c-1.428,2.299 -5.37,5.146 -11.835,8.543l0,0.646c1.242,1.317 4.309,2.199 9.207,2.646l1.312,2.625c-0.899,2.625 -2.65,3.931 -5.251,3.931l-15.121,-2.619c-2.622,0 -4.597,2.411 -5.916,7.225l-3.29,0c-0.877,0 -1.312,-0.657 -1.312,-1.975l5.25,-20.37c0,-5.252 2.85,-7.877 8.557,-7.877l9.857,-0.666Z" style="fill:#010101;fill-rule:nonzero;"/><path d="M280.764,221.507l0.542,1.654l9.976,-4.367l-1.653,-1.665l-3.196,0c-2.558,0 -4.416,1.434 -5.669,4.378m0.259,2.283l-0.752,-2.3l0.032,-0.083c1.313,-3.149 3.375,-4.743 6.13,-4.743l3.387,0l2.266,2.284l-11.063,4.842Zm-10.792,14.819c0.005,1.539 0.621,1.715 1.081,1.715l3.116,0c1.343,-4.793 3.392,-7.225 6.091,-7.225l15.164,2.625c2.439,0 4.073,-1.207 4.957,-3.689l-1.212,-2.421c-4.923,-0.458 -7.942,-1.34 -9.224,-2.708l-0.065,-0.066l0,-0.877l0.123,-0.066c6.346,-3.331 10.284,-6.161 11.712,-8.406l0,-1.913c0,-3.822 -2.721,-5.68 -8.31,-5.68l-9.84,0.667c-5.618,0 -8.342,2.499 -8.342,7.645l-0.01,0.054l-5.241,20.345Zm4.549,2.178l-3.468,0c-0.705,0 -1.543,-0.382 -1.543,-2.207l0.005,-0.06l5.244,-20.345c0.01,-5.36 2.966,-8.073 8.789,-8.073l9.841,-0.667l0.002,0c5.836,0 8.787,2.068 8.787,6.143l0,2.046l-0.034,0.061c-1.431,2.306 -5.401,5.189 -11.799,8.559l0,0.409c1.237,1.235 4.261,2.078 8.998,2.509l0.129,0.01l1.409,2.829l-0.032,0.089c-0.93,2.719 -2.77,4.097 -5.469,4.097l-15.162,-2.631c-2.454,0.006 -4.368,2.384 -5.653,7.065l-0.044,0.166Z" style="fill:#010101;fill-rule:nonzero;"/><path d="M327.238,206.49c1.958,0.837 3.028,1.693 3.213,2.569l0,1.942c0,1.456 -5.567,3.385 -16.711,5.775l-1.937,2.569l0,0.646l1.937,0.645c5.998,-1.71 10.496,-2.566 13.498,-2.566l2.564,1.921c0,3.8 -5.352,6.153 -16.062,7.068l-1.292,1.921l0,2.585l3.211,0l12.227,-3.854l0.627,0c0.85,0 1.709,1.285 2.586,3.854c0,2.444 -6.431,5.439 -19.296,8.99l-1.92,0l-7.07,-7.716l0,-1.274c0,-1.434 0.638,-2.938 1.918,-4.506l-0.628,-12.203c0,-3.001 3.429,-4.505 10.285,-4.505c5.158,-2.571 9.442,-3.861 12.85,-3.861" style="fill:#010101;fill-rule:nonzero;"/><path d="M309.986,240.324l1.787,0c15.659,-4.324 19.038,-7.126 19.094,-8.719c-1.037,-3.028 -1.854,-3.662 -2.354,-3.662l-0.59,0l-12.264,3.854l-3.444,0l0,-2.889l1.396,-2.068l0.11,-0.006c10.408,-0.894 15.739,-3.155 15.849,-6.733l-2.409,-1.798c-2.968,0.017 -7.458,0.876 -13.356,2.559l-0.07,0.017l-2.164,-0.723l0,-0.894l2.04,-2.696l0.083,-0.018c14.377,-3.081 16.522,-4.802 16.522,-5.547l0,-1.918c-0.175,-0.779 -1.193,-1.573 -3.027,-2.357c-3.348,0.011 -7.615,1.303 -12.699,3.834l-0.046,0.022l-0.055,0c-6.669,0 -10.054,1.439 -10.054,4.274l0.633,12.281l-0.056,0.073c-1.239,1.516 -1.868,2.983 -1.868,4.355l0,1.187l6.942,7.572Zm1.85,0.463l-2.054,0l-0.069,-0.072l-7.135,-7.787l0,-1.363c0,-1.46 0.646,-2.999 1.917,-4.582l-0.622,-12.111c0,-3.149 3.518,-4.743 10.46,-4.754c5.146,-2.56 9.486,-3.86 12.905,-3.86l0.093,0.022c2.047,0.878 3.147,1.771 3.346,2.735l0.005,0.044l0,1.942c0,1.02 -1.746,2.752 -16.805,5.984l-1.842,2.437l0,0.397l1.712,0.574c5.956,-1.699 10.493,-2.559 13.491,-2.559l0.078,0l2.718,2.041l0,0.116c0,3.964 -5.285,6.346 -16.165,7.29l-1.189,1.77l0,2.283l2.945,0l12.261,-3.86l0.627,0c0.97,0 1.885,1.319 2.803,4.015l0.014,0.076c0,2.587 -6.37,5.599 -19.467,9.216l-0.027,0.006Z" style="fill:#010101;fill-rule:nonzero;"/></g></g></svg>